<svg xmlns="http://www.w3.org/2000/svg" xmlns:xlink="http://www.w3.org/1999/xlink" viewBox="0 0 300 300">
  <defs>
    <style>
      .cls-1 {
        clip-path: url(#clip-Logo);
      }

      .cls-2 {
        fill: #fff;
      }

      .cls-3 {
        fill: rgba(255,255,255,0);
      }
    </style>
    <clipPath id="clip-Logo">
      <rect width="300" height="300"/>
    </clipPath>
  </defs>
  <g id="Logo" class="cls-1">
    <rect class="cls-3" width="300" height="300"/>
    <path id="Exclusion_1" data-name="Exclusion 1" class="cls-2" d="M-108,62H-388V-218h280V62ZM-380-210V54h264V-210Z" transform="translate(398 228)"/>
    <path id="Path_2" data-name="Path 2" class="cls-2" d="M142.965,224H122.652L98.277,183.172a88.922,88.922,0,0,0-6.5-9.7,37.054,37.054,0,0,0-6.449-6.551,22.338,22.338,0,0,0-7.109-3.707,29.234,29.234,0,0,0-8.582-1.168H55.621V224H38.559V78.359H82.027a61.948,61.948,0,0,1,17.621,2.387,39.426,39.426,0,0,1,14.016,7.262,33.745,33.745,0,0,1,9.293,12.137,40.246,40.246,0,0,1,3.352,17.012,40.964,40.964,0,0,1-2.285,13.965,36.471,36.471,0,0,1-6.5,11.324,39.4,39.4,0,0,1-10.156,8.48,51.849,51.849,0,0,1-13.355,5.434v.406a30.718,30.718,0,0,1,6.348,3.707,34.934,34.934,0,0,1,5.129,4.926,65.245,65.245,0,0,1,4.824,6.449q2.387,3.605,5.332,8.379ZM55.621,93.8v52.813H78.777a35.12,35.12,0,0,0,11.832-1.93A27.392,27.392,0,0,0,100,139.145a25.1,25.1,0,0,0,6.2-8.836,29.581,29.581,0,0,0,2.234-11.73q0-11.68-7.566-18.23T78.98,93.8ZM264.332,224H240.566L184.3,157.375a40.61,40.61,0,0,1-3.859-5.078h-.406V224H162.973V78.359h17.063v68.453h.406a40.154,40.154,0,0,1,3.859-4.977l54.438-63.477h21.227L197.5,148.234Z"/>
  </g>
</svg>
